<svg id="visual" viewBox="0 0 1920 1080" width="1920" height="1080" xmlns="http://www.w3.org/2000/svg" xmlns:xlink="http://www.w3.org/1999/xlink" version="1.1"><path d="M0 185L53.3 183.2C106.7 181.3 213.3 177.7 320 193.8C426.7 210 533.3 246 640 246C746.7 246 853.3 210 960 193.8C1066.7 177.7 1173.3 181.3 1280 177.7C1386.7 174 1493.3 163 1600 186.3C1706.7 209.7 1813.3 267.3 1866.7 296.2L1920 325L1920 0L1866.7 0C1813.3 0 1706.7 0 1600 0C1493.3 0 1386.7 0 1280 0C1173.3 0 1066.7 0 960 0C853.3 0 746.7 0 640 0C533.3 0 426.7 0 320 0C213.3 0 106.7 0 53.3 0L0 0Z" fill="#52a8ff"></path><path d="M0 228L53.3 222.5C106.7 217 213.3 206 320 220.3C426.7 234.7 533.3 274.3 640 276.2C746.7 278 853.3 242 960 227.7C1066.7 213.3 1173.3 220.7 1280 215.3C1386.7 210 1493.3 192 1600 217.2C1706.7 242.3 1813.3 310.7 1866.7 344.8L1920 379L1920 323L1866.7 294.2C1813.3 265.3 1706.7 207.7 1600 184.3C1493.3 161 1386.7 172 1280 175.7C1173.3 179.3 1066.7 175.7 960 191.8C853.3 208 746.7 244 640 244C533.3 244 426.7 208 320 191.8C213.3 175.7 106.7 179.3 53.3 181.2L0 183Z" fill="#6aafff"></path><path d="M0 325L53.3 321.3C106.7 317.7 213.3 310.3 320 317.5C426.7 324.7 533.3 346.3 640 344.7C746.7 343 853.3 318 960 312.7C1066.7 307.3 1173.3 321.7 1280 323.3C1386.7 325 1493.3 314 1600 333.8C1706.7 353.7 1813.3 404.3 1866.7 429.7L1920 455L1920 377L1866.7 342.8C1813.3 308.7 1706.7 240.3 1600 215.2C1493.3 190 1386.7 208 1280 213.3C1173.3 218.7 1066.7 211.3 960 225.7C853.3 240 746.7 276 640 274.2C533.3 272.3 426.7 232.7 320 218.3C213.3 204 106.7 215 53.3 220.5L0 226Z" fill="#7eb7ff"></path><path d="M0 411L53.3 402C106.7 393 213.3 375 320 376.8C426.7 378.7 533.3 400.3 640 402.2C746.7 404 853.3 386 960 380.7C1066.7 375.3 1173.3 382.7 1280 382.7C1386.7 382.7 1493.3 375.3 1600 402.3C1706.7 429.3 1813.3 490.7 1866.7 521.3L1920 552L1920 453L1866.7 427.7C1813.3 402.3 1706.7 351.7 1600 331.8C1493.3 312 1386.7 323 1280 321.3C1173.3 319.7 1066.7 305.3 960 310.7C853.3 316 746.7 341 640 342.7C533.3 344.3 426.7 322.7 320 315.5C213.3 308.3 106.7 315.7 53.3 319.3L0 323Z" fill="#8fbfff"></path><path d="M0 638L53.3 641.7C106.7 645.3 213.3 652.7 320 650.8C426.7 649 533.3 638 640 634.3C746.7 630.7 853.3 634.3 960 623.7C1066.7 613 1173.3 588 1280 584.5C1386.7 581 1493.3 599 1600 618.7C1706.7 638.3 1813.3 659.7 1866.7 670.3L1920 681L1920 550L1866.7 519.3C1813.3 488.7 1706.7 427.3 1600 400.3C1493.3 373.3 1386.7 380.7 1280 380.7C1173.3 380.7 1066.7 373.3 960 378.7C853.3 384 746.7 402 640 400.2C533.3 398.3 426.7 376.7 320 374.8C213.3 373 106.7 391 53.3 400L0 409Z" fill="#a0c6ff"></path><path d="M0 725L53.3 726.7C106.7 728.3 213.3 731.7 320 731.7C426.7 731.7 533.3 728.3 640 730.2C746.7 732 853.3 739 960 740.7C1066.7 742.3 1173.3 738.7 1280 738.7C1386.7 738.7 1493.3 742.3 1600 749.7C1706.7 757 1813.3 768 1866.7 773.5L1920 779L1920 679L1866.7 668.3C1813.3 657.7 1706.7 636.3 1600 616.7C1493.3 597 1386.7 579 1280 582.5C1173.3 586 1066.7 611 960 621.7C853.3 632.3 746.7 628.7 640 632.3C533.3 636 426.7 647 320 648.8C213.3 650.7 106.7 643.3 53.3 639.7L0 636Z" fill="#afceff"></path><path d="M0 789L53.3 794.5C106.7 800 213.3 811 320 809.3C426.7 807.7 533.3 793.3 640 793.3C746.7 793.3 853.3 807.7 960 809.3C1066.7 811 1173.3 800 1280 792.8C1386.7 785.7 1493.3 782.3 1600 787.8C1706.7 793.3 1813.3 807.7 1866.7 814.8L1920 822L1920 777L1866.7 771.5C1813.3 766 1706.7 755 1600 747.7C1493.3 740.3 1386.7 736.7 1280 736.7C1173.3 736.7 1066.7 740.3 960 738.7C853.3 737 746.7 730 640 728.2C533.3 726.3 426.7 729.7 320 729.7C213.3 729.7 106.7 726.3 53.3 724.7L0 723Z" fill="#bdd6ff"></path><path d="M0 854L53.3 854C106.7 854 213.3 854 320 850.5C426.7 847 533.3 840 640 843.7C746.7 847.3 853.3 861.7 960 861.7C1066.7 861.7 1173.3 847.3 1280 836.5C1386.7 825.7 1493.3 818.3 1600 823.7C1706.7 829 1813.3 847 1866.7 856L1920 865L1920 820L1866.7 812.8C1813.3 805.7 1706.7 791.3 1600 785.8C1493.3 780.3 1386.7 783.7 1280 790.8C1173.3 798 1066.7 809 960 807.3C853.3 805.7 746.7 791.3 640 791.3C533.3 791.3 426.7 805.7 320 807.3C213.3 809 106.7 798 53.3 792.5L0 787Z" fill="#cbdeff"></path><path d="M0 897L53.3 897C106.7 897 213.3 897 320 891.7C426.7 886.3 533.3 875.7 640 875.7C746.7 875.7 853.3 886.3 960 890C1066.7 893.7 1173.3 890.3 1280 883.2C1386.7 876 1493.3 865 1600 870.3C1706.7 875.7 1813.3 897.3 1866.7 908.2L1920 919L1920 863L1866.7 854C1813.3 845 1706.7 827 1600 821.7C1493.3 816.3 1386.7 823.7 1280 834.5C1173.3 845.3 1066.7 859.7 960 859.7C853.3 859.7 746.7 845.3 640 841.7C533.3 838 426.7 845 320 848.5C213.3 852 106.7 852 53.3 852L0 852Z" fill="#d8e6ff"></path><path d="M0 941L53.3 941C106.7 941 213.3 941 320 937.3C426.7 933.7 533.3 926.3 640 928C746.7 929.7 853.3 940.3 960 945.7C1066.7 951 1173.3 951 1280 945.7C1386.7 940.3 1493.3 929.7 1600 929.7C1706.7 929.7 1813.3 940.3 1866.7 945.7L1920 951L1920 917L1866.7 906.2C1813.3 895.3 1706.7 873.7 1600 868.3C1493.3 863 1386.7 874 1280 881.2C1173.3 888.3 1066.7 891.7 960 888C853.3 884.3 746.7 873.7 640 873.7C533.3 873.7 426.7 884.3 320 889.7C213.3 895 106.7 895 53.3 895L0 895Z" fill="#e5eeff"></path><path d="M0 984L53.3 985.8C106.7 987.7 213.3 991.3 320 987.7C426.7 984 533.3 973 640 971.2C746.7 969.3 853.3 976.7 960 983.8C1066.7 991 1173.3 998 1280 998C1386.7 998 1493.3 991 1600 994.7C1706.7 998.3 1813.3 1012.7 1866.7 1019.8L1920 1027L1920 949L1866.7 943.7C1813.3 938.3 1706.7 927.7 1600 927.7C1493.3 927.7 1386.7 938.3 1280 943.7C1173.3 949 1066.7 949 960 943.7C853.3 938.3 746.7 927.7 640 926C533.3 924.3 426.7 931.7 320 935.3C213.3 939 106.7 939 53.3 939L0 939Z" fill="#f2f7ff"></path><path d="M0 1081L53.3 1081C106.7 1081 213.3 1081 320 1081C426.7 1081 533.3 1081 640 1081C746.7 1081 853.3 1081 960 1081C1066.7 1081 1173.3 1081 1280 1081C1386.7 1081 1493.3 1081 1600 1081C1706.7 1081 1813.3 1081 1866.7 1081L1920 1081L1920 1025L1866.7 1017.8C1813.3 1010.7 1706.7 996.3 1600 992.7C1493.3 989 1386.7 996 1280 996C1173.3 996 1066.7 989 960 981.8C853.3 974.7 746.7 967.3 640 969.2C533.3 971 426.7 982 320 985.7C213.3 989.3 106.7 985.7 53.3 983.8L0 982Z" fill="#ffffff"></path></svg>